<?xml version="1.0" ?><svg id="Layer_1" style="enable-background:new 0 0 1024 1024;" version="1.1" viewBox="0 0 1024 1024" xml:space="preserve" xmlns="http://www.w3.org/2000/svg" xmlns:xlink="http://www.w3.org/1999/xlink"><path d="M918.9,346.8c-22.1-54.5-54.5-103.3-96.4-145.2c-41.9-41.9-90.8-74.3-145.2-96.4C624.6,83.8,569,73,512,73  s-112.6,10.8-165.2,32.1c-54.5,22.1-103.3,54.5-145.2,96.4c-41.9,41.9-74.4,90.8-96.4,145.2C83.8,399.4,73,455,73,512  s10.8,112.6,32.1,165.2c22.1,54.5,54.5,103.3,96.4,145.2c41.9,41.9,90.8,74.3,145.2,96.4C399.4,940.2,455,951,512,951  s112.6-10.8,165.2-32.1c54.5-22.1,103.3-54.5,145.2-96.4c41.9-41.9,74.4-90.8,96.4-145.2C940.2,624.6,951,569,951,512  S940.2,399.4,918.9,346.8z M636.2,664.5L512,540.3L387.8,664.5l-28.3-28.3L483.7,512L359.5,387.8l28.3-28.3L512,483.7l124.2-124.2  l28.3,28.3L540.3,512l124.2,124.2L636.2,664.5z" id="XMLID_340_"/><g id="XMLID_1_"/><g id="XMLID_2_"/><g id="XMLID_3_"/><g id="XMLID_4_"/><g id="XMLID_5_"/></svg>